<?xml version="1.0" encoding="UTF-8" standalone="no"?>
<svg
   xmlns:dc="http://purl.org/dc/elements/1.1/"
   xmlns:cc="http://creativecommons.org/ns#"
   xmlns:rdf="http://www.w3.org/1999/02/22-rdf-syntax-ns#"
   xmlns:svg="http://www.w3.org/2000/svg"
   xmlns="http://www.w3.org/2000/svg"
   xmlns:sodipodi="http://sodipodi.sourceforge.net/DTD/sodipodi-0.dtd"
   xmlns:inkscape="http://www.inkscape.org/namespaces/inkscape"
   id="pt_right_down"
   width="24"
   height="24"
   version="1.1"
   inkscape:version="0.48.3.1 r9886"
   sodipodi:docname="pt_right_down.svg">
  <metadata
     id="metadata15">
    <rdf:RDF>
      <cc:Work
         rdf:about="">
        <dc:format>image/svg+xml</dc:format>
        <dc:type
           rdf:resource="http://purl.org/dc/dcmitype/StillImage" />
        <dc:title></dc:title>
      </cc:Work>
    </rdf:RDF>
  </metadata>
  <defs
     id="defs13" />
  <sodipodi:namedview
     pagecolor="#ffffff"
     bordercolor="#666666"
     borderopacity="1"
     objecttolerance="10"
     gridtolerance="10"
     guidetolerance="10"
     inkscape:pageopacity="0"
     inkscape:pageshadow="2"
     inkscape:window-width="2560"
     inkscape:window-height="1524"
     id="namedview11"
     showgrid="true"
     inkscape:zoom="51.166667"
     inkscape:cx="6.6351795"
     inkscape:cy="12"
     inkscape:window-x="0"
     inkscape:window-y="34"
     inkscape:window-maximized="1"
     inkscape:current-layer="g7">
    <inkscape:grid
       type="xygrid"
       id="grid2992"
       empspacing="4"
       visible="true"
       enabled="true"
       snapvisiblegridlinesonly="true" />
  </sodipodi:namedview>
  <g
     inkscape:groupmode="layer"
     inkscape:label="Background"
     style="display:none"
     id="g3">
    <path
       style="fill:#6dae48"
       d="M 0,0 0,24 24,24 24,0 z"
       id="path5"
       inkscape:connector-curvature="0" />
  </g>
  <g
     inkscape:groupmode="layer"
     id="layer1"
     inkscape:label="Layer"
     style="display:inline">
    <path
       sodipodi:type="inkscape:offset"
       inkscape:radius="0.97719872"
       inkscape:original="M 11 1 L 11 8 L 6 6 L 12 22 L 18 6 L 13 8 L 13 1 L 11 1 z "
       style="fill:#ffffff;fill-opacity:1;stroke:none"
       id="path3781"
       d="M 10.8125,0.03125 A 0.97729644,0.97729644 0 0 0 10.03125,1 l 0,5.5625 L 6.375,5.09375 a 0.97729644,0.97729644 0 0 0 -1.28125,1.25 l 6,16 a 0.97729644,0.97729644 0 0 0 1.8125,0 l 6,-16 A 0.97729644,0.97729644 0 0 0 17.625,5.09375 L 13.96875,6.5625 13.96875,1 A 0.97729644,0.97729644 0 0 0 13,0.03125 l -2,0 a 0.97729644,0.97729644 0 0 0 -0.1875,0 z"
       transform="matrix(-0.70710678,0.70710678,0.70710678,0.70710678,12.925983,-4.0367766)" />
  </g>
  <g
     inkscape:groupmode="layer"
     inkscape:label="Arrow"
     id="g7"
     style="display:inline">
    <path
       d="M 4.44365,5.857864 9.393398,10.807612 4.44365,12.928932 20,20 12.928932,4.443651 10.807612,9.393398 5.857864,4.443651 z"
       id="path9"
       inkscape:connector-curvature="0" />
  </g>
</svg>
