<?xml version="1.0" encoding="UTF-8" standalone="no"?>
<svg
   xmlns:dc="http://purl.org/dc/elements/1.1/"
   xmlns:cc="http://creativecommons.org/ns#"
   xmlns:rdf="http://www.w3.org/1999/02/22-rdf-syntax-ns#"
   xmlns:svg="http://www.w3.org/2000/svg"
   xmlns="http://www.w3.org/2000/svg"
   xmlns:sodipodi="http://sodipodi.sourceforge.net/DTD/sodipodi-0.dtd"
   xmlns:inkscape="http://www.inkscape.org/namespaces/inkscape"
   id="pt_right"
   width="24"
   height="24"
   version="1.1"
   inkscape:version="0.48.3.1 r9886"
   sodipodi:docname="pt_right.svg">
  <metadata
     id="metadata15">
    <rdf:RDF>
      <cc:Work
         rdf:about="">
        <dc:format>image/svg+xml</dc:format>
        <dc:type
           rdf:resource="http://purl.org/dc/dcmitype/StillImage" />
        <dc:title></dc:title>
      </cc:Work>
    </rdf:RDF>
  </metadata>
  <defs
     id="defs13" />
  <sodipodi:namedview
     pagecolor="#ffffff"
     bordercolor="#666666"
     borderopacity="1"
     objecttolerance="10"
     gridtolerance="10"
     guidetolerance="10"
     inkscape:pageopacity="0"
     inkscape:pageshadow="2"
     inkscape:window-width="2560"
     inkscape:window-height="1524"
     id="namedview11"
     showgrid="true"
     inkscape:zoom="51.166667"
     inkscape:cx="12"
     inkscape:cy="12"
     inkscape:window-x="0"
     inkscape:window-y="34"
     inkscape:window-maximized="1"
     inkscape:current-layer="g7">
    <inkscape:grid
       type="xygrid"
       id="grid2992"
       empspacing="4"
       visible="true"
       enabled="true"
       snapvisiblegridlinesonly="true" />
  </sodipodi:namedview>
  <g
     inkscape:groupmode="layer"
     inkscape:label="Background"
     style="display:none"
     id="g3">
    <path
       style="fill:#6dae48"
       d="M 0,0 0,24 24,24 24,0 z"
       id="path5"
       inkscape:connector-curvature="0" />
  </g>
  <g
     inkscape:groupmode="layer"
     id="layer1"
     inkscape:label="Layer"
     style="display:inline">
    <path
       sodipodi:type="inkscape:offset"
       inkscape:radius="0.95765471"
       inkscape:original="M 18 6 L 2 12 L 18 18 L 16 13 L 23 13 L 23 11 L 16 11 L 18 6 z "
       style="fill:#ffffff;fill-opacity:1;display:inline"
       id="path3774"
       d="m 17.9375,5.03125 a 0.95775048,0.95775048 0 0 0 -0.28125,0.0625 l -16,6 a 0.95775048,0.95775048 0 0 0 0,1.8125 l 16,6 a 0.95775048,0.95775048 0 0 0 1.21875,-1.25 l -1.46875,-3.6875 5.59375,0 A 0.95775048,0.95775048 0 0 0 23.96875,13 l 0,-2 A 0.95775048,0.95775048 0 0 0 23,10.03125 l -5.59375,0 1.46875,-3.6875 a 0.95775048,0.95775048 0 0 0 -0.9375,-1.3125 z"
       transform="matrix(-1,0,0,1,24.977147,0)" />
  </g>
  <g
     inkscape:groupmode="layer"
     inkscape:label="Arrow"
     id="g7"
     style="display:inline">
    <path
       d="M 2,13 9,13 7,18 23,12 7,6 9,11 2,11 z"
       id="path9"
       inkscape:connector-curvature="0"
       sodipodi:nodetypes="cccccccc" />
  </g>
</svg>
