<svg class="bob" font-family="arial" font-size="14" height="688" width="448" xmlns="http://www.w3.org/2000/svg">
<defs>
<marker id="triangle" markerHeight="8" markerWidth="8" orient="auto" refX="4" refY="2" viewBox="0 0 8 4">
<polygon class="fg_fill" points="0,0 0,4 8,2 0,0"/>
</marker>
<marker id="clear_triangle" markerHeight="10" markerWidth="10" orient="auto" refX="1" refY="7" viewBox="0 0 20 14">
<polygon class="bg_fill" points="2,2 2,12 18,7 2,2"/>
</marker>
<marker id="circle" markerHeight="5" markerWidth="5" orient="auto" refX="10" refY="10" viewBox="0 0 20 20">
<circle class="fg_fill" cx="10" cy="10" r="8"/>
</marker>
<marker id="square" markerHeight="5" markerWidth="5" orient="auto" refX="10" refY="10" viewBox="0 0 20 20">
<rect class="fg_fill" height="20" width="20" x="0" y="0"/>
</marker>
<marker id="open_circle" markerHeight="10" markerWidth="10" orient="auto" refX="10" refY="10" viewBox="0 0 20 20">
<circle class="bg_fill" cx="10" cy="10" r="4"/>
</marker>
<marker id="big_open_circle" markerHeight="20" markerWidth="20" orient="auto" refX="20" refY="20" viewBox="0 0 40 40">
<circle class="bg_fill" cx="20" cy="20" r="6"/>
</marker>
</defs>
<style type="text/css">

rect.backdrop {
    fill: none;
}
text{
    fill: white;
}

circle {
    fill: none;
    stroke: white;
    stroke-width: 2;
}

line {
    stroke: white;
    stroke-width: 2;
    stroke-opacity: 1;
    fill-opacity: 1;
    stroke-linecap: round;
    stroke-linejoin: miter;
}

path {
    fill: none;
    stroke: white;
    stroke-width: 2;
    stroke-opacity: 1;
    fill-opacity: 1;
    stroke-linecap: round;
    stroke-linejoin: miter;
}

line.dashed {
    stroke-dasharray: 5;
}

.fg_fill {
    fill: white;
}


.bg_fill {
    fill: white;
    stroke: white;
    stroke-width: 2;
}

tspan.head{
    fill: none;
    stroke: none;
}
    
</style>
<rect class="backdrop" height="688" width="448" x="0" y="0"/>
<g>
<line x1="4" x2="4" y1="12" y2="180"/>
<path d="M 4 180 A 4 4 0 0 0 8 184"/>
<path d="M 8 8 A 4 4 0 0 0 4 12"/>
</g>
<g>
<line x1="4" x2="4" y1="220" y2="292"/>
<path d="M 4 292 A 4 4 0 0 0 8 296"/>
<path d="M 8 216 A 4 4 0 0 0 4 220"/>
</g>
<g>
<line x1="4" x2="4" y1="364" y2="436"/>
<path d="M 4 436 A 4 4 0 0 0 8 440"/>
<path d="M 8 360 A 4 4 0 0 0 4 364"/>
</g>
<g>
<line x1="8" x2="416" y1="8" y2="8"/>
<path d="M 420 12 A 4 4 0 0 0 416 8"/>
</g>
<g>
<line x1="8" x2="416" y1="184" y2="184"/>
<path d="M 416 184 A 4 4 0 0 0 420 180"/>
</g>
<g>
<line x1="8" x2="68" y1="216" y2="216"/>
<line x1="68" x2="68" y1="216" y2="208"/>
<line x1="68" x2="128" y1="216" y2="216"/>
<line class="dashed" x1="68" x2="68" y1="192" y2="208"/>
<path d="M 132 220 A 4 4 0 0 0 128 216"/>
</g>
<g>
<line x1="8" x2="128" y1="296" y2="296"/>
<path d="M 128 296 A 4 4 0 0 0 132 292"/>
</g>
<g>
<line x1="8" x2="68" y1="360" y2="360"/>
<line x1="68" x2="68" y1="360" y2="352"/>
<line x1="68" x2="128" y1="360" y2="360"/>
<line class="dashed" x1="68" x2="68" y1="320" y2="352"/>
<path d="M 132 364 A 4 4 0 0 0 128 360"/>
</g>
<g>
<line x1="8" x2="128" y1="440" y2="440"/>
<path d="M 128 440 A 4 4 0 0 0 132 436"/>
</g>
<g>
<line x1="32" x2="42" y1="112" y2="132"/>
<path d="M 32 96 A 16 16 0 0 0 32 112"/>
<path d="M 42 132 A 8 8 0 0 0 48 136"/>
</g>
<g>
<line x1="42" x2="32" y1="76" y2="96"/>
<path d="M 48 72 A 8 8 0 0 0 42 76"/>
</g>
<g>
<line x1="48" x2="192" y1="72" y2="72"/>
<path d="M 198 76 A 8 8 0 0 0 192 72"/>
</g>
<g>
<line x1="48" x2="192" y1="136" y2="136"/>
<path d="M 192 136 A 8 8 0 0 0 198 132"/>
</g>
<g>
<line marker-end="url(#triangle)" x1="68" x2="68" y1="160" y2="148"/>
<line class="dashed" x1="68" x2="68" y1="160" y2="176"/>
</g>
<g>
<line marker-end="url(#triangle)" x1="68" x2="68" y1="320" y2="308"/>
</g>
<g>
<line x1="84" x2="84" y1="492" y2="548"/>
<path d="M 84 548 A 4 4 0 0 0 88 552"/>
<path d="M 88 488 A 4 4 0 0 0 84 492"/>
</g>
<g>
<line x1="88" x2="108" y1="488" y2="488"/>
<line x1="108" x2="108" y1="488" y2="480"/>
<line x1="108" x2="252" y1="488" y2="488"/>
<line x1="252" x2="252" y1="488" y2="480"/>
<line x1="252" x2="380" y1="488" y2="488"/>
<line x1="380" x2="380" y1="488" y2="480"/>
<line x1="380" x2="400" y1="488" y2="488"/>
<line class="dashed" x1="108" x2="108" y1="464" y2="480"/>
<line class="dashed" x1="252" x2="252" y1="464" y2="480"/>
<line class="dashed" x1="380" x2="380" y1="320" y2="480"/>
<path d="M 404 492 A 4 4 0 0 0 400 488"/>
</g>
<g>
<line x1="88" x2="400" y1="552" y2="552"/>
<path d="M 400 552 A 4 4 0 0 0 404 548"/>
</g>
<g>
<line marker-end="url(#triangle)" x1="108" x2="108" y1="464" y2="452"/>
</g>
<g>
<line x1="132" x2="132" y1="220" y2="292"/>
</g>
<g>
<line x1="132" x2="132" y1="364" y2="436"/>
</g>
<g>
<line x1="152" x2="170" y1="400" y2="436"/>
<line x1="170" x2="152" y1="364" y2="400"/>
<path d="M 170 436 A 8 8 0 0 0 176 440"/>
<path d="M 176 360 A 8 8 0 0 0 170 364"/>
</g>
<g>
<line x1="156" x2="156" y1="220" y2="292"/>
<path d="M 156 292 A 4 4 0 0 0 160 296"/>
<path d="M 160 216 A 4 4 0 0 0 156 220"/>
</g>
<g>
<line x1="160" x2="180" y1="216" y2="216"/>
<line x1="180" x2="180" y1="216" y2="208"/>
<line x1="180" x2="268" y1="216" y2="216"/>
<line x1="268" x2="268" y1="216" y2="208"/>
<line x1="268" x2="288" y1="216" y2="216"/>
<line class="dashed" x1="180" x2="180" y1="192" y2="208"/>
<line class="dashed" x1="268" x2="268" y1="192" y2="208"/>
<path d="M 292 220 A 4 4 0 0 0 288 216"/>
</g>
<g>
<line x1="160" x2="236" y1="296" y2="296"/>
<line x1="236" x2="236" y1="296" y2="304"/>
<line x1="236" x2="288" y1="296" y2="296"/>
<line class="dashed" x1="236" x2="236" y1="304" y2="336"/>
<path d="M 288 296 A 4 4 0 0 0 292 292"/>
</g>
<g>
<line x1="164" x2="164" y1="604" y2="676"/>
<path d="M 164 676 A 4 4 0 0 0 168 680"/>
<path d="M 168 600 A 4 4 0 0 0 164 604"/>
</g>
<g>
<line x1="168" x2="244" y1="600" y2="600"/>
<line x1="244" x2="244" y1="600" y2="592"/>
<line x1="244" x2="320" y1="600" y2="600"/>
<line class="dashed" x1="244" x2="244" y1="576" y2="592"/>
<path d="M 324 604 A 4 4 0 0 0 320 600"/>
</g>
<g>
<line x1="168" x2="320" y1="680" y2="680"/>
<path d="M 320 680 A 4 4 0 0 0 324 676"/>
</g>
<g>
<line x1="176" x2="328" y1="360" y2="360"/>
<path d="M 334 364 A 8 8 0 0 0 328 360"/>
</g>
<g>
<line x1="176" x2="328" y1="440" y2="440"/>
<path d="M 328 440 A 8 8 0 0 0 334 436"/>
</g>
<g>
<line marker-end="url(#triangle)" x1="180" x2="180" y1="160" y2="148"/>
<line class="dashed" x1="180" x2="180" y1="160" y2="176"/>
</g>
<g>
<line x1="198" x2="208" y1="76" y2="96"/>
<path d="M 208 112 A 16 16 0 0 0 208 96"/>
</g>
<g>
<line x1="198" x2="208" y1="132" y2="112"/>
</g>
<g>
<line marker-end="url(#triangle)" x1="236" x2="236" y1="336" y2="348"/>
</g>
<g>
<line x1="240" x2="250" y1="112" y2="132"/>
<path d="M 240 96 A 16 16 0 0 0 240 112"/>
<path d="M 250 132 A 8 8 0 0 0 256 136"/>
</g>
<g>
<line marker-end="url(#triangle)" x1="244" x2="244" y1="576" y2="564"/>
</g>
<g>
<line x1="250" x2="240" y1="76" y2="96"/>
<path d="M 256 72 A 8 8 0 0 0 250 76"/>
</g>
<g>
<line marker-end="url(#triangle)" x1="252" x2="252" y1="464" y2="452"/>
</g>
<g>
<line x1="256" x2="376" y1="72" y2="72"/>
<path d="M 382 76 A 8 8 0 0 0 376 72"/>
</g>
<g>
<line x1="256" x2="376" y1="136" y2="136"/>
<path d="M 376 136 A 8 8 0 0 0 382 132"/>
</g>
<g>
<line marker-end="url(#triangle)" x1="268" x2="268" y1="160" y2="148"/>
<line class="dashed" x1="268" x2="268" y1="160" y2="176"/>
</g>
<g>
<line x1="292" x2="292" y1="220" y2="292"/>
</g>
<g>
<line x1="316" x2="316" y1="220" y2="292"/>
<path d="M 316 292 A 4 4 0 0 0 320 296"/>
<path d="M 320 216 A 4 4 0 0 0 316 220"/>
</g>
<g>
<line x1="320" x2="340" y1="216" y2="216"/>
<line x1="340" x2="340" y1="216" y2="208"/>
<line x1="340" x2="440" y1="216" y2="216"/>
<line class="dashed" x1="340" x2="340" y1="192" y2="208"/>
<path d="M 444 220 A 4 4 0 0 0 440 216"/>
</g>
<g>
<line x1="320" x2="440" y1="296" y2="296"/>
<path d="M 440 296 A 4 4 0 0 0 444 292"/>
</g>
<g>
<line x1="324" x2="324" y1="604" y2="676"/>
</g>
<g>
<line x1="334" x2="352" y1="364" y2="400"/>
<line x1="334" x2="352" y1="436" y2="400"/>
</g>
<g>
<line marker-end="url(#triangle)" x1="340" x2="340" y1="160" y2="148"/>
<line class="dashed" x1="340" x2="340" y1="160" y2="176"/>
</g>
<g>
<line marker-end="url(#triangle)" x1="380" x2="380" y1="320" y2="308"/>
</g>
<g>
<line x1="382" x2="392" y1="76" y2="96"/>
<path d="M 392 112 A 16 16 0 0 0 392 96"/>
</g>
<g>
<line x1="382" x2="392" y1="132" y2="112"/>
</g>
<g>
<line x1="404" x2="404" y1="492" y2="548"/>
</g>
<g>
<line x1="420" x2="420" y1="12" y2="180"/>
</g>
<g>
<line x1="444" x2="444" y1="220" y2="292"/>
</g>
<g>
<text x="25" y="252">
IRIS
</text>
</g>
<g>
<text x="41" y="268">
(Java)
</text>
</g>
<g>
<text x="49" y="396">
graft
</text>
</g>
<g>
<text x="49" y="412">
(Rust)
</text>
</g>
<g>
<text x="65" y="252">
server
</text>
</g>
<g>
<text x="81" y="332">
sonar
</text>
</g>
<g>
<text x="105" y="108">
tms
</text>
</g>
<g>
<text x="169" y="44">
PostgreSQL
</text>
</g>
<g>
<text x="177" y="396">
Filesystem
</text>
</g>
<g>
<text x="177" y="412">
/var/www/html/iris/
</text>
</g>
<g>
<text x="185" y="652">
(Rust,
</text>
</g>
<g>
<text x="193" y="252">
honeybee
</text>
</g>
<g>
<text x="201" y="268">
(Rust)
</text>
</g>
<g>
<text x="225" y="524">
nginx
</text>
</g>
<g>
<text x="225" y="636">
bulb
</text>
</g>
<g>
<text x="241" y="652">
Leaflet)
</text>
</g>
<g>
<text x="281" y="108">
earthwyrm
</text>
</g>
<g>
<text x="345" y="252">
earthwyrm
</text>
</g>
<g>
<text x="353" y="268">
(Rust)
</text>
</g>
</svg>
