<svg class="bob" font-family="arial" font-size="14" height="448" width="504" xmlns="http://www.w3.org/2000/svg">
<defs>
<marker id="triangle" markerHeight="8" markerWidth="8" orient="auto" refX="4" refY="2" viewBox="0 0 8 4">
<polygon class="fg_fill" points="0,0 0,4 8,2 0,0"/>
</marker>
<marker id="clear_triangle" markerHeight="10" markerWidth="10" orient="auto" refX="1" refY="7" viewBox="0 0 20 14">
<polygon class="bg_fill" points="2,2 2,12 18,7 2,2"/>
</marker>
<marker id="circle" markerHeight="5" markerWidth="5" orient="auto" refX="10" refY="10" viewBox="0 0 20 20">
<circle class="fg_fill" cx="10" cy="10" r="8"/>
</marker>
<marker id="square" markerHeight="5" markerWidth="5" orient="auto" refX="10" refY="10" viewBox="0 0 20 20">
<rect class="fg_fill" height="20" width="20" x="0" y="0"/>
</marker>
<marker id="open_circle" markerHeight="10" markerWidth="10" orient="auto" refX="10" refY="10" viewBox="0 0 20 20">
<circle class="bg_fill" cx="10" cy="10" r="4"/>
</marker>
<marker id="big_open_circle" markerHeight="20" markerWidth="20" orient="auto" refX="20" refY="20" viewBox="0 0 40 40">
<circle class="bg_fill" cx="20" cy="20" r="6"/>
</marker>
</defs>
<style type="text/css">

rect.backdrop {
    fill: none;
}
text{
    fill: white;
}

circle {
    fill: none;
    stroke: white;
    stroke-width: 2;
}

line {
    stroke: white;
    stroke-width: 2;
    stroke-opacity: 1;
    fill-opacity: 1;
    stroke-linecap: round;
    stroke-linejoin: miter;
}

path {
    fill: none;
    stroke: white;
    stroke-width: 2;
    stroke-opacity: 1;
    fill-opacity: 1;
    stroke-linecap: round;
    stroke-linejoin: miter;
}

line.dashed {
    stroke-dasharray: 5;
}

.fg_fill {
    fill: white;
}


.bg_fill {
    fill: none;
    stroke: white;
    stroke-width: 2;
}

tspan.head{
    fill: none;
    stroke: none;
}
    
</style>
<rect class="backdrop" height="448" width="504" x="0" y="0"/>
<g>
<line x1="4" x2="4" y1="8" y2="200"/>
<line x1="4" x2="332" y1="8" y2="8"/>
<line x1="4" x2="60" y1="200" y2="200"/>
<line x1="60" x2="60" y1="160" y2="200"/>
<line x1="60" x2="60" y1="200" y2="232"/>
<line x1="60" x2="212" y1="200" y2="200"/>
<line x1="60" x2="112" y1="232" y2="232"/>
<line x1="212" x2="212" y1="184" y2="200"/>
<line x1="212" x2="212" y1="200" y2="232"/>
<line x1="212" x2="276" y1="200" y2="200"/>
<line x1="212" x2="276" y1="232" y2="232"/>
<line x1="276" x2="276" y1="160" y2="200"/>
<line x1="276" x2="276" y1="200" y2="232"/>
<line x1="276" x2="332" y1="200" y2="200"/>
<line x1="276" x2="404" y1="232" y2="232"/>
<line x1="332" x2="332" y1="8" y2="104"/>
<line x1="332" x2="332" y1="104" y2="200"/>
<line x1="332" x2="372" y1="104" y2="104"/>
<line x1="404" x2="404" y1="160" y2="232"/>
<line x1="404" x2="424" y1="232" y2="232"/>
<path d="M 116 236 A 4 4 0 0 0 112 232"/>
<path d="M 428 236 A 4 4 0 0 0 424 232"/>
</g>
<g>
<line x1="4" x2="4" y1="236" y2="308"/>
<path d="M 4 308 A 4 4 0 0 0 8 312"/>
<path d="M 8 232 A 4 4 0 0 0 4 236"/>
</g>
<g>
<line x1="8" x2="60" y1="232" y2="232"/>
</g>
<g>
<line x1="8" x2="112" y1="312" y2="312"/>
<path d="M 112 312 A 4 4 0 0 0 116 308"/>
</g>
<g>
<line x1="28" x2="28" y1="76" y2="132"/>
<path d="M 28 132 A 4 4 0 0 0 32 136"/>
<path d="M 32 72 A 4 4 0 0 0 28 76"/>
</g>
<g>
<line x1="32" x2="144" y1="72" y2="72"/>
<path d="M 148 76 A 4 4 0 0 0 144 72"/>
</g>
<g>
<line x1="32" x2="144" y1="136" y2="136"/>
<path d="M 144 136 A 4 4 0 0 0 148 132"/>
</g>
<g>
<line marker-end="url(#triangle)" x1="60" x2="60" y1="160" y2="148"/>
</g>
<g>
<line x1="60" x2="60" y1="364" y2="436"/>
<path d="M 60 436 A 4 4 0 0 0 64 440"/>
<path d="M 64 360 A 4 4 0 0 0 60 364"/>
</g>
<g>
<line x1="64" x2="84" y1="360" y2="360"/>
<line x1="84" x2="84" y1="336" y2="360"/>
<line x1="84" x2="284" y1="360" y2="360"/>
<line x1="284" x2="284" y1="336" y2="360"/>
<line x1="284" x2="320" y1="360" y2="360"/>
<path d="M 324 364 A 4 4 0 0 0 320 360"/>
</g>
<g>
<line x1="64" x2="320" y1="440" y2="440"/>
<path d="M 320 440 A 4 4 0 0 0 324 436"/>
</g>
<g>
<line marker-end="url(#triangle)" x1="84" x2="84" y1="336" y2="324"/>
</g>
<g>
<line marker-end="url(#triangle)" x1="116" x2="116" y1="160" y2="148"/>
<line x1="116" x2="116" y1="160" y2="184"/>
<line x1="116" x2="212" y1="184" y2="184"/>
</g>
<g>
<line x1="116" x2="116" y1="236" y2="308"/>
</g>
<g>
<line x1="148" x2="148" y1="76" y2="132"/>
</g>
<g>
<line x1="180" x2="180" y1="236" y2="308"/>
<path d="M 180 308 A 4 4 0 0 0 184 312"/>
<path d="M 184 232 A 4 4 0 0 0 180 236"/>
</g>
<g>
<line x1="184" x2="212" y1="232" y2="232"/>
</g>
<g>
<line x1="184" x2="424" y1="312" y2="312"/>
<path d="M 424 312 A 4 4 0 0 0 428 308"/>
</g>
<g>
<line x1="188" x2="188" y1="76" y2="132"/>
<path d="M 188 132 A 4 4 0 0 0 192 136"/>
<path d="M 192 72 A 4 4 0 0 0 188 76"/>
</g>
<g>
<line x1="192" x2="304" y1="72" y2="72"/>
<path d="M 308 76 A 4 4 0 0 0 304 72"/>
</g>
<g>
<line x1="192" x2="304" y1="136" y2="136"/>
<path d="M 304 136 A 4 4 0 0 0 308 132"/>
</g>
<g>
<line marker-end="url(#triangle)" x1="276" x2="276" y1="160" y2="148"/>
</g>
<g>
<line marker-end="url(#triangle)" x1="284" x2="284" y1="336" y2="324"/>
</g>
<g>
<line x1="308" x2="308" y1="76" y2="132"/>
</g>
<g>
<line marker-end="url(#triangle)" x1="320" x2="316" y1="104" y2="104"/>
<line x1="320" x2="332" y1="104" y2="104"/>
</g>
<g>
<line x1="324" x2="324" y1="364" y2="436"/>
</g>
<g>
<line x1="372" x2="372" y1="60" y2="132"/>
<path d="M 372 132 A 4 4 0 0 0 376 136"/>
<path d="M 376 56 A 4 4 0 0 0 372 60"/>
</g>
<g>
<line x1="376" x2="496" y1="56" y2="56"/>
<path d="M 500 60 A 4 4 0 0 0 496 56"/>
</g>
<g>
<line x1="376" x2="496" y1="136" y2="136"/>
<path d="M 496 136 A 4 4 0 0 0 500 132"/>
</g>
<g>
<line marker-end="url(#triangle)" x1="404" x2="404" y1="160" y2="148"/>
</g>
<g>
<line x1="428" x2="428" y1="236" y2="308"/>
</g>
<g>
<line x1="500" x2="500" y1="60" y2="132"/>
</g>
<g>
<text x="25" y="268">
earthwyrm
</text>
</g>
<g>
<text x="33" y="284">
(Rust)
</text>
</g>
<g>
<text x="81" y="108">
osm
</text>
</g>
<g>
<text x="81" y="412">
(Rust,
</text>
</g>
<g>
<text x="129" y="44">
PostgreSQL
</text>
</g>
<g>
<text x="137" y="412">
WebAssembly,
</text>
</g>
<g>
<text x="185" y="396">
bulb
</text>
</g>
<g>
<text x="241" y="108">
tms
</text>
</g>
<g>
<text x="241" y="412">
Leaflet)
</text>
</g>
<g>
<text x="273" y="268">
honeybee
</text>
</g>
<g>
<text x="281" y="284">
(Rust)
</text>
</g>
<g>
<text x="393" y="92">
IRIS
</text>
</g>
<g>
<text x="409" y="108">
(Java)
</text>
</g>
<g>
<text x="417" y="188">
(sonar)
</text>
</g>
<g>
<text x="433" y="92">
server
</text>
</g>
</svg>
