<svg class="bob" font-family="arial" font-size="14" height="384" width="536" xmlns="http://www.w3.org/2000/svg">
<defs>
<marker id="triangle" markerHeight="8" markerWidth="8" orient="auto" refX="4" refY="2" viewBox="0 0 8 4">
<polygon class="fg_fill" points="0,0 0,4 8,2 0,0"/>
</marker>
<marker id="clear_triangle" markerHeight="10" markerWidth="10" orient="auto" refX="1" refY="7" viewBox="0 0 20 14">
<polygon class="bg_fill" points="2,2 2,12 18,7 2,2"/>
</marker>
<marker id="circle" markerHeight="5" markerWidth="5" orient="auto" refX="10" refY="10" viewBox="0 0 20 20">
<circle class="fg_fill" cx="10" cy="10" r="8"/>
</marker>
<marker id="square" markerHeight="5" markerWidth="5" orient="auto" refX="10" refY="10" viewBox="0 0 20 20">
<rect class="fg_fill" height="20" width="20" x="0" y="0"/>
</marker>
<marker id="open_circle" markerHeight="10" markerWidth="10" orient="auto" refX="10" refY="10" viewBox="0 0 20 20">
<circle class="bg_fill" cx="10" cy="10" r="4"/>
</marker>
<marker id="big_open_circle" markerHeight="20" markerWidth="20" orient="auto" refX="20" refY="20" viewBox="0 0 40 40">
<circle class="bg_fill" cx="20" cy="20" r="6"/>
</marker>
</defs>
<style type="text/css">

rect.backdrop {
    fill: none;
}
text{
    fill: white;
}

circle {
    fill: none;
    stroke: white;
    stroke-width: 2;
}

line {
    stroke: white;
    stroke-width: 2;
    stroke-opacity: 1;
    fill-opacity: 1;
    stroke-linecap: round;
    stroke-linejoin: miter;
}

path {
    fill: none;
    stroke: white;
    stroke-width: 2;
    stroke-opacity: 1;
    fill-opacity: 1;
    stroke-linecap: round;
    stroke-linejoin: miter;
}

line.dashed {
    stroke-dasharray: 5;
}

.fg_fill {
    fill: white;
}


.bg_fill {
    stroke: white;
    stroke-width: 2;
}

tspan.head{
    fill: none;
    stroke: none;
}
    
</style>
<rect class="backdrop" height="384" width="536" x="0" y="0"/>
<g>
<line x1="4" x2="4" y1="12" y2="84"/>
<path d="M 4 84 A 4 4 0 0 0 8 88"/>
<path d="M 8 8 A 4 4 0 0 0 4 12"/>
</g>
<g>
<line x1="4" x2="4" y1="300" y2="372"/>
<path d="M 4 372 A 4 4 0 0 0 8 376"/>
<path d="M 8 296 A 4 4 0 0 0 4 300"/>
</g>
<g>
<line x1="8" x2="120" y1="8" y2="8"/>
<path d="M 124 12 A 4 4 0 0 0 120 8"/>
</g>
<g>
<line x1="8" x2="120" y1="88" y2="88"/>
<path d="M 120 88 A 4 4 0 0 0 124 84"/>
</g>
<g>
<line x1="8" x2="120" y1="296" y2="296"/>
<path d="M 124 300 A 4 4 0 0 0 120 296"/>
</g>
<g>
<line x1="8" x2="120" y1="376" y2="376"/>
<path d="M 120 376 A 4 4 0 0 0 124 372"/>
</g>
<g>
<line x1="124" x2="124" y1="12" y2="84"/>
</g>
<g>
<line marker-end="url(#triangle)" x1="124" x2="196" y1="56" y2="56"/>
</g>
<g>
<line x1="124" x2="124" y1="300" y2="372"/>
</g>
<g>
<line marker-end="url(#triangle)" x1="124" x2="196" y1="344" y2="344"/>
</g>
<g>
<line x1="148" x2="148" y1="156" y2="228"/>
<path d="M 148 228 A 4 4 0 0 0 152 232"/>
<path d="M 152 152 A 4 4 0 0 0 148 156"/>
</g>
<g>
<line x1="152" x2="352" y1="152" y2="152"/>
<path d="M 356 156 A 4 4 0 0 0 352 152"/>
</g>
<g>
<line x1="152" x2="352" y1="232" y2="232"/>
<path d="M 352 232 A 4 4 0 0 0 356 228"/>
</g>
<g>
<line x1="204" x2="204" y1="12" y2="84"/>
<path d="M 204 84 A 4 4 0 0 0 208 88"/>
<path d="M 208 8 A 4 4 0 0 0 204 12"/>
</g>
<g>
<line x1="204" x2="204" y1="300" y2="372"/>
<path d="M 204 372 A 4 4 0 0 0 208 376"/>
<path d="M 208 296 A 4 4 0 0 0 204 300"/>
</g>
<g>
<line x1="208" x2="304" y1="8" y2="8"/>
<path d="M 308 12 A 4 4 0 0 0 304 8"/>
</g>
<g>
<line x1="208" x2="260" y1="88" y2="88"/>
<line marker-end="url(#triangle)" x1="260" x2="260" y1="88" y2="140"/>
<line x1="260" x2="304" y1="88" y2="88"/>
<path d="M 304 88 A 4 4 0 0 0 308 84"/>
</g>
<g>
<line x1="208" x2="284" y1="296" y2="296"/>
<line x1="284" x2="284" y1="256" y2="296"/>
<line x1="284" x2="312" y1="296" y2="296"/>
<path d="M 316 300 A 4 4 0 0 0 312 296"/>
</g>
<g>
<line x1="208" x2="312" y1="376" y2="376"/>
<path d="M 312 376 A 4 4 0 0 0 316 372"/>
</g>
<g>
<line marker-end="url(#triangle)" x1="284" x2="284" y1="256" y2="244"/>
</g>
<g>
<line x1="308" x2="308" y1="12" y2="84"/>
</g>
<g>
<line x1="316" x2="316" y1="300" y2="372"/>
</g>
<g>
<line marker-end="url(#triangle)" x1="320" x2="316" y1="56" y2="56"/>
<line x1="320" x2="404" y1="56" y2="56"/>
</g>
<g>
<line x1="356" x2="356" y1="156" y2="228"/>
</g>
<g>
<line x1="404" x2="404" y1="12" y2="84"/>
<path d="M 404 84 A 4 4 0 0 0 408 88"/>
<path d="M 408 8 A 4 4 0 0 0 404 12"/>
</g>
<g>
<line x1="408" x2="528" y1="8" y2="8"/>
<path d="M 532 12 A 4 4 0 0 0 528 8"/>
</g>
<g>
<line x1="408" x2="528" y1="88" y2="88"/>
<path d="M 528 88 A 4 4 0 0 0 532 84"/>
</g>
<g>
<line x1="532" x2="532" y1="12" y2="84"/>
</g>
<g>
<text x="25" y="44">
PostgreSQL
</text>
</g>
<g>
<text x="25" y="332">
PostgreSQL
</text>
</g>
<g>
<text x="57" y="60">
tms
</text>
</g>
<g>
<text x="57" y="348">
osm
</text>
</g>
<g>
<text x="169" y="204">
(Rust,
</text>
</g>
<g>
<text x="225" y="44">
honeybee
</text>
</g>
<g>
<text x="225" y="204">
WASM,
</text>
</g>
<g>
<text x="225" y="332">
earthwyrm
</text>
</g>
<g>
<text x="233" y="60">
(Rust)
</text>
</g>
<g>
<text x="233" y="188">
bulb
</text>
</g>
<g>
<text x="233" y="348">
(Rust)
</text>
</g>
<g>
<text x="273" y="204">
Leaflet)
</text>
</g>
<g>
<text x="337" y="44">
sonar
</text>
</g>
<g>
<text x="425" y="44">
IRIS
</text>
</g>
<g>
<text x="441" y="60">
(Java)
</text>
</g>
<g>
<text x="465" y="44">
server
</text>
</g>
</svg>
