<svg class="bob" font-family="arial" font-size="14" height="416" width="472" xmlns="http://www.w3.org/2000/svg">
<defs>
<marker id="triangle" markerHeight="8" markerWidth="8" orient="auto" refX="4" refY="2" viewBox="0 0 8 4">
<polygon class="fg_fill" points="0,0 0,4 8,2 0,0"/>
</marker>
<marker id="clear_triangle" markerHeight="10" markerWidth="10" orient="auto" refX="1" refY="7" viewBox="0 0 20 14">
<polygon class="bg_fill" points="2,2 2,12 18,7 2,2"/>
</marker>
<marker id="circle" markerHeight="5" markerWidth="5" orient="auto" refX="10" refY="10" viewBox="0 0 20 20">
<circle class="fg_fill" cx="10" cy="10" r="8"/>
</marker>
<marker id="square" markerHeight="5" markerWidth="5" orient="auto" refX="10" refY="10" viewBox="0 0 20 20">
<rect class="fg_fill" height="20" width="20" x="0" y="0"/>
</marker>
<marker id="open_circle" markerHeight="10" markerWidth="10" orient="auto" refX="10" refY="10" viewBox="0 0 20 20">
<circle class="bg_fill" cx="10" cy="10" r="4"/>
</marker>
<marker id="big_open_circle" markerHeight="20" markerWidth="20" orient="auto" refX="20" refY="20" viewBox="0 0 40 40">
<circle class="bg_fill" cx="20" cy="20" r="6"/>
</marker>
</defs>
<style type="text/css">

rect.backdrop {
    fill: none;
}
text{
    fill: white;
}

circle {
    fill: none;
    stroke: white;
    stroke-width: 2;
}

line {
    stroke: white;
    stroke-width: 2;
    stroke-opacity: 1;
    fill-opacity: 1;
    stroke-linecap: round;
    stroke-linejoin: miter;
}

path {
    fill: none;
    stroke: white;
    stroke-width: 2;
    stroke-opacity: 1;
    fill-opacity: 1;
    stroke-linecap: round;
    stroke-linejoin: miter;
}

line.dashed {
    stroke-dasharray: 5;
}

.fg_fill {
    fill: white;
}


.bg_fill {
    fill: none;
    stroke: white;
    stroke-width: 2;
}

tspan.head{
    fill: none;
    stroke: none;
}
    
</style>
<rect class="backdrop" height="416" width="472" x="0" y="0"/>
<g>
<line x1="4" x2="4" y1="12" y2="180"/>
<path d="M 4 180 A 4 4 0 0 0 8 184"/>
<path d="M 8 8 A 4 4 0 0 0 4 12"/>
</g>
<g>
<line x1="4" x2="4" y1="220" y2="292"/>
<path d="M 4 292 A 4 4 0 0 0 8 296"/>
<path d="M 8 216 A 4 4 0 0 0 4 220"/>
</g>
<g>
<line x1="8" x2="416" y1="8" y2="8"/>
<path d="M 420 12 A 4 4 0 0 0 416 8"/>
</g>
<g>
<line x1="8" x2="416" y1="184" y2="184"/>
<path d="M 416 184 A 4 4 0 0 0 420 180"/>
</g>
<g>
<line x1="8" x2="68" y1="216" y2="216"/>
<line x1="68" x2="68" y1="216" y2="208"/>
<line x1="68" x2="112" y1="216" y2="216"/>
<line class="dashed" x1="68" x2="68" y1="192" y2="208"/>
<path d="M 116 220 A 4 4 0 0 0 112 216"/>
</g>
<g>
<line x1="8" x2="112" y1="296" y2="296"/>
<path d="M 112 296 A 4 4 0 0 0 116 292"/>
</g>
<g>
<line x1="32" x2="42" y1="112" y2="132"/>
<path d="M 32 96 A 16 16 0 0 0 32 112"/>
<path d="M 42 132 A 8 8 0 0 0 48 136"/>
</g>
<g>
<line x1="36" x2="36" y1="348" y2="404"/>
<path d="M 36 404 A 4 4 0 0 0 40 408"/>
<path d="M 40 344 A 4 4 0 0 0 36 348"/>
</g>
<g>
<line x1="40" x2="68" y1="344" y2="344"/>
<line x1="68" x2="68" y1="344" y2="336"/>
<line x1="68" x2="204" y1="344" y2="344"/>
<line x1="204" x2="204" y1="344" y2="336"/>
<line x1="204" x2="240" y1="344" y2="344"/>
<line class="dashed" x1="68" x2="68" y1="320" y2="336"/>
<line class="dashed" x1="204" x2="204" y1="320" y2="336"/>
<path d="M 244 348 A 4 4 0 0 0 240 344"/>
</g>
<g>
<line x1="40" x2="240" y1="408" y2="408"/>
<path d="M 240 408 A 4 4 0 0 0 244 404"/>
</g>
<g>
<line x1="42" x2="32" y1="76" y2="96"/>
<path d="M 48 72 A 8 8 0 0 0 42 76"/>
</g>
<g>
<line x1="48" x2="176" y1="72" y2="72"/>
<path d="M 182 76 A 8 8 0 0 0 176 72"/>
</g>
<g>
<line x1="48" x2="176" y1="136" y2="136"/>
<path d="M 176 136 A 8 8 0 0 0 182 132"/>
</g>
<g>
<line marker-end="url(#triangle)" x1="68" x2="68" y1="160" y2="148"/>
<line class="dashed" x1="68" x2="68" y1="160" y2="176"/>
</g>
<g>
<line marker-end="url(#triangle)" x1="68" x2="68" y1="320" y2="308"/>
</g>
<g>
<line x1="116" x2="116" y1="220" y2="292"/>
</g>
<g>
<line x1="140" x2="140" y1="220" y2="292"/>
<path d="M 140 292 A 4 4 0 0 0 144 296"/>
<path d="M 144 216 A 4 4 0 0 0 140 220"/>
</g>
<g>
<line x1="144" x2="164" y1="216" y2="216"/>
<line x1="164" x2="164" y1="216" y2="208"/>
<line x1="164" x2="252" y1="216" y2="216"/>
<line x1="252" x2="252" y1="216" y2="208"/>
<line x1="252" x2="272" y1="216" y2="216"/>
<line class="dashed" x1="164" x2="164" y1="192" y2="208"/>
<line class="dashed" x1="252" x2="252" y1="192" y2="208"/>
<path d="M 276 220 A 4 4 0 0 0 272 216"/>
</g>
<g>
<line x1="144" x2="272" y1="296" y2="296"/>
<path d="M 272 296 A 4 4 0 0 0 276 292"/>
</g>
<g>
<line marker-end="url(#triangle)" x1="164" x2="164" y1="160" y2="148"/>
<line class="dashed" x1="164" x2="164" y1="160" y2="176"/>
</g>
<g>
<line x1="182" x2="192" y1="76" y2="96"/>
<path d="M 192 112 A 16 16 0 0 0 192 96"/>
</g>
<g>
<line x1="182" x2="192" y1="132" y2="112"/>
</g>
<g>
<line marker-end="url(#triangle)" x1="204" x2="204" y1="320" y2="308"/>
</g>
<g>
<line x1="224" x2="234" y1="112" y2="132"/>
<path d="M 224 96 A 16 16 0 0 0 224 112"/>
<path d="M 234 132 A 8 8 0 0 0 240 136"/>
</g>
<g>
<line x1="234" x2="224" y1="76" y2="96"/>
<path d="M 240 72 A 8 8 0 0 0 234 76"/>
</g>
<g>
<line x1="240" x2="376" y1="72" y2="72"/>
<path d="M 382 76 A 8 8 0 0 0 376 72"/>
</g>
<g>
<line x1="240" x2="376" y1="136" y2="136"/>
<path d="M 376 136 A 8 8 0 0 0 382 132"/>
</g>
<g>
<line x1="244" x2="244" y1="348" y2="404"/>
</g>
<g>
<line marker-end="url(#triangle)" x1="252" x2="252" y1="160" y2="148"/>
<line class="dashed" x1="252" x2="252" y1="160" y2="176"/>
</g>
<g>
<line marker-end="url(#triangle)" x1="256" x2="252" y1="376" y2="376"/>
<line class="dashed" x1="256" x2="296" y1="376" y2="376"/>
</g>
<g>
<line x1="276" x2="276" y1="220" y2="292"/>
</g>
<g>
<line x1="280" x2="276" y1="248" y2="248"/>
<line class="dashed" x1="280" x2="328" y1="248" y2="248"/>
</g>
<g>
<line x1="300" x2="300" y1="332" y2="404"/>
<path d="M 300 404 A 4 4 0 0 0 304 408"/>
<path d="M 304 328 A 4 4 0 0 0 300 332"/>
</g>
<g>
<line x1="300" x2="296" y1="376" y2="376"/>
</g>
<g>
<line x1="304" x2="456" y1="328" y2="328"/>
<path d="M 460 332 A 4 4 0 0 0 456 328"/>
</g>
<g>
<line x1="304" x2="456" y1="408" y2="408"/>
<path d="M 456 408 A 4 4 0 0 0 460 404"/>
</g>
<g>
<line marker-end="url(#triangle)" x1="328" x2="332" y1="248" y2="248"/>
</g>
<g>
<line x1="340" x2="340" y1="220" y2="292"/>
<path d="M 340 292 A 4 4 0 0 0 344 296"/>
<path d="M 344 216 A 4 4 0 0 0 340 220"/>
</g>
<g>
<line x1="344" x2="364" y1="216" y2="216"/>
<line x1="364" x2="364" y1="216" y2="208"/>
<line x1="364" x2="464" y1="216" y2="216"/>
<line class="dashed" x1="364" x2="364" y1="192" y2="208"/>
<path d="M 468 220 A 4 4 0 0 0 464 216"/>
</g>
<g>
<line x1="344" x2="464" y1="296" y2="296"/>
<path d="M 464 296 A 4 4 0 0 0 468 292"/>
</g>
<g>
<line marker-end="url(#triangle)" x1="364" x2="364" y1="160" y2="148"/>
<line class="dashed" x1="364" x2="364" y1="160" y2="176"/>
</g>
<g>
<line x1="382" x2="392" y1="76" y2="96"/>
<path d="M 392 112 A 16 16 0 0 0 392 96"/>
</g>
<g>
<line x1="382" x2="392" y1="132" y2="112"/>
</g>
<g>
<line x1="420" x2="420" y1="12" y2="180"/>
</g>
<g>
<line x1="460" x2="460" y1="332" y2="404"/>
</g>
<g>
<line x1="468" x2="468" y1="220" y2="292"/>
</g>
<g>
<text x="25" y="252">
earthwyrm
</text>
</g>
<g>
<text x="33" y="268">
(Rust)
</text>
</g>
<g>
<text x="81" y="108">
earthwyrm
</text>
</g>
<g>
<text x="121" y="380">
nginx
</text>
</g>
<g>
<text x="169" y="44">
PostgreSQL
</text>
</g>
<g>
<text x="177" y="252">
honeybee
</text>
</g>
<g>
<text x="185" y="268">
(Rust)
</text>
</g>
<g>
<text x="289" y="268">
sonar
</text>
</g>
<g>
<text x="297" y="108">
tms
</text>
</g>
<g>
<text x="321" y="380">
(Rust,
</text>
</g>
<g>
<text x="361" y="252">
IRIS
</text>
</g>
<g>
<text x="361" y="364">
bulb
</text>
</g>
<g>
<text x="377" y="268">
(Java)
</text>
</g>
<g>
<text x="377" y="380">
Leaflet)
</text>
</g>
<g>
<text x="401" y="252">
server
</text>
</g>
</svg>
