<?xml version="1.0" encoding="UTF-8" standalone="no"?>
<!DOCTYPE svg PUBLIC '-//W3C//DTD SVG 1.1//EN'
	  'http://www.w3.org/Graphics/SVG/1.1/DTD/svg11.dtd'>
<svg width="480" height="480" viewBox="0 0 256 256">
<defs>
<style type='text/css'>
<![CDATA[
text {
	font-family:Bitstream Vera Sans;
	font-size:6px;
	font-style:normal;
	font-weight:normal;
}
path {
	fill:none;
	stroke:black;
	stroke-linecap:butt;
	stroke-linejoin:round;
}
circle {
	fill:green;
	fill-opacity:0.125;
	stroke:black;
	stroke-width:1px;
	stroke-dasharray:2,1;
}
]]>
</style>
</defs>
<g>
    <path id="road_1"
       d="M 12,42 C 34,40 66,40 68,40 C 88,44 150,40 156,40 C 168,42 172,26 180,24 C 188,21 214,15 224,14 C 234,14 237,16 254,14" />
    <use xlink:href="#road_1" x="0.6" y="2.3" />
    <path id="road_2"
       d="M 65,4 C 58,21 52,27 50,39 C 47,50 49,78 50,89 C 50,100 37,133 36,154 C 35,175 38,229 38,248" />
    <use xlink:href="#road_2" x="2.3" y="0" />
    <path id="road_3"
       d="M 194,5 L 194,83 C 196,246 196,251 196,251" />
    <use xlink:href="#road_3" x="2.3" y="0" />
    <path id="road_4"
       d="M 253,218 C 207,219 197,216 162,214 C 141,214 142,221 127,220 C 112,220 98,216 4,218" />
    <use xlink:href="#road_4" x="0" y="2.3" />
    <path id="road_5"
       d="M 119,5 C 120,12 120,24 116,32 C 114,40 102,42 102,42" />
    <use xlink:href="#road_5" x="2.3" y="2.3" />
</g>

<circle cx="25" cy="42" r="16" />
<circle cx="90" cy="40" r="16" />
<circle cx="144" cy="40" r="16" />
<circle cx="236" cy="18" r="16" />
<circle cx="182" cy="138" r="16" />
<circle cx="202" cy="86" r="16" />
<circle cx="54" cy="94" r="16" />
<circle cx="38" cy="158" r="16" />
<circle cx="172" cy="212" r="16" />
<circle cx="138" cy="216" r="16" />
<circle cx="64" cy="214" r="16" />
<circle cx="98" cy="216" r="16" />
<circle cx="224" cy="214" r="16" />
<circle cx="18" cy="218" r="16" />

<text id="texttext">
    <tspan x="18" y="38">Penn</tspan>
    <tspan x="80" y="38">Lyndale</tspan>
    <tspan x="132" y="38">Portland</tspan>
    <tspan x="228" y="12">28th</tspan>
    <tspan x="200" y="88">66th</tspan>
    <tspan x="166" y="140">Diagonal</tspan>
    <tspan x="56" y="96">66th</tspan>
    <tspan x="40" y="160">76th</tspan>
    <tspan x="10" y="214">Penn</tspan>
    <tspan x="52" y="214">Lyndale</tspan>
    <tspan x="88" y="214">Nicollet</tspan>
    <tspan x="164" y="212">12th</tspan>
    <tspan x="124" y="214">Portland</tspan>
    <tspan x="216" y="214">24th</tspan>
</text>

<text style="font-size:10px">
    <tspan x="10" y="128">I-35W</tspan>
    <tspan x="200" y="120">Hwy 77</tspan>
    <tspan x="104" y="242">I-494</tspan>
    <tspan x="144" y="22">Hwy 62</tspan>
</text>
</svg>
