<?xml version="1.0" encoding="UTF-8" standalone="no"?>
<svg xmlns="http://www.w3.org/2000/svg" width="256" height="256" version="1.1">
  <defs>
    <marker id="Arrow1Mend"
       orient="auto"
       refY="0.0"
       refX="0.0"
       style="overflow:visible;">
      <path
         d="M 0.0,0.0 L 5.0,-5.0 L -12.5,0.0 L 5.0,5.0 L 0.0,0.0 z "
         style="fill-rule:evenodd;stroke:#000000;stroke-width:1.0pt;marker-start:none;"
         transform="scale(0.4) rotate(180) translate(10,0)" />
    </marker>
    <marker id="Arrow1Lend"
       orient="auto"
       refY="0.0"
       refX="0.0"
       style="overflow:visible;">
      <path
         id="path3598"
         d="M 0.0,0.0 L 5.0,-5.0 L -12.5,0.0 L 5.0,5.0 L 0.0,0.0 z "
         style="fill-rule:evenodd;stroke:#000000;stroke-width:1.0pt;marker-start:none;"
         transform="scale(0.8) rotate(180) translate(12.5,0)" />
    </marker>
  </defs>
    <path style="stroke:#000000;marker-end:url(#Arrow1Lend)"
       d="m 24,176 0,-160" />
    <path style="stroke:#000000;marker-end:url(#Arrow1Lend)"
       d="m 40,192 200,0" />
    <g transform="rotate(-90) translate(-120,16)">
    <text style="font-size:16px;font-family:Liberation Sans" x="0" y="0">
       <tspan x="0" y="0">Speed</tspan></text>
    </g>
    <text style="font-size:16px;font-family:Liberation Sans" x="112" y="208">
       <tspan x="112" y="208">Distance</tspan></text>
    <circle cx="80" cy="52" r="4" style="fill:blue" />
    <path style="stroke:#000000" d="m 44,52 24,0" />
    <text style="font-size:16px;font-family:Liberation Sans" x="32" y="56">
       <tspan x="32" y="56">u</tspan></text>
    <circle cx="168" cy="124" r="4" style="fill:blue" />
    <path style="stroke:#000000" d="m 180,124 24,0" />
    <text style="font-size:16px;font-family:Liberation Sans" x="214" y="128">
       <tspan x="214" y="128">v</tspan></text>
    <path style="stroke:#000000" d="m 80,72 0,32" />
    <path style="stroke:#000000" d="m 168,72 0,32" />
    <path style="stroke:#000000;marker-end:url(#Arrow1Mend)"
       d="m 136,88 32,0" />
    <path style="stroke:#000000;marker-end:url(#Arrow1Mend)"
       d="m 112,88 -32,0" />
    <text style="font-size:16px;font-family:Liberation Sans" x="120" y="92">
       <tspan x="120" y="92">s</tspan></text>
    <text style="font-size:20px;font-family:Liberation Sans" x="8" y="240">
       <tspan x="64" y="240">v² = u² + 2as</tspan></text>
</svg>
